<svg width="70" height="60" viewBox="0 0 70 60" fill="none" xmlns="http://www.w3.org/2000/svg">
<path d="M64.6968 18.3623V42.0256H4.30899V6.69332H52.9921C52.9642 6.55328 52.95 6.41057 52.9498 6.26743V1.99459H4.01565C2.9612 1.98628 1.9466 2.42212 1.19398 3.20672C0.441366 3.99132 0.0120418 5.06074 0 6.18086V43.5768C0.0120383 44.6951 0.440015 45.763 1.19052 46.5473C1.94102 47.3316 2.9531 47.7687 4.00586 47.7631H65.5769C66.6296 47.7687 67.6417 47.3316 68.3922 46.5473C69.1427 45.763 69.5707 44.6951 69.5827 43.5768V18.3623H64.6968Z" fill="#D1D3D4"/>
<path d="M47.7932 55.1522H43.0931L39.4066 48.5732H29.9868L26.4503 55.1522H21.7991C20.8865 55.1522 20.14 56.2465 20.14 57.5761C20.14 58.9058 20.8865 60 21.7991 60H47.7932C48.7059 60 49.4555 58.9058 49.4555 57.5761C49.4555 56.2465 48.7059 55.1522 47.7932 55.1522Z" fill="#D1D3D4"/>
<path opacity="0.4" d="M27.3729 19.7299L28.7777 19.7403L28.7809 19.3386L29.8077 19.3456L29.8109 18.9889L30.1466 18.9924V18.6115L30.528 18.615V18.2825H30.8866L30.8898 17.8809L31.2451 17.8843L31.6036 17.8878V17.4342L33.6147 17.4481L33.6114 17.9224L34.3481 17.9294L34.3448 18.2825L34.7262 18.2375L34.7229 18.6184L35.0586 18.6219L35.0554 18.9508L35.4367 18.9543L35.4335 19.3802L35.4302 19.7853L38.2203 19.8026L38.2301 18.6427L37.8716 18.6392L37.8748 17.9294L37.6075 17.9259L37.5228 17.4758L37.1642 17.4723L37.1675 16.7832L36.5221 16.7798V16.4716L36.0984 16.4681L36.1017 16.0907L35.4759 16.0873L35.4563 15.6129L35.0554 15.6094L33.983 15.6025V15.2459L31.2386 15.2285L31.2581 15.606L29.8533 15.6683L29.8044 15.9522L29.1786 16.0215L29.1558 16.3747L28.7092 16.3712L28.706 16.7278L28.4387 16.7348L28.4289 17.0983L28.0867 17.1053L28.0769 17.4723L27.7444 17.4688L27.7314 18.1994L27.3826 18.2202L27.3729 19.6918" fill="#3BB54A"/>
<path opacity="0.2" d="M27.0274 19.73L28.4355 19.7404L28.4387 19.3353L29.4655 19.3422V18.9855L29.8012 18.989L29.8045 18.6081L30.1825 18.6116L30.1858 18.2792L30.5411 18.2826L30.5443 17.8775L30.9029 17.881L31.2582 17.8844L31.2614 17.4343L33.2692 17.4481L33.266 17.9225L34.0026 17.926V18.2826L34.3807 18.2376V18.615L34.7132 18.6185V18.9509H35.0913L35.088 19.3803V19.7819L37.8781 19.7992L37.8846 18.6393L37.5261 18.6358L37.5326 17.926L37.2621 17.9225L37.1773 17.4724L36.8188 17.4689L36.8253 16.7833L36.1767 16.7799L36.1799 16.4682H35.7529L35.7562 16.0873L35.1304 16.0839L35.1108 15.6095L34.7099 15.606L33.6376 15.5991L33.6408 15.2425L30.8964 15.2252L30.9159 15.606L29.5078 15.6649L29.4622 15.9523L28.8364 16.0181L28.8103 16.3747L28.3638 16.3713V16.7245L28.0965 16.7314L28.0867 17.095L27.7445 17.1019L27.7347 17.4689L27.399 17.4655L27.3859 18.1995L27.0372 18.2203L27.0274 19.6884" fill="#3BB54A"/>
<path opacity="0.4" d="M28.0638 19.7368L29.4686 19.7437L29.4719 19.342L30.4986 19.349L30.5019 18.9923L30.8343 18.9958L30.8376 18.6149L31.2157 18.6183L31.2189 18.2859L31.5775 18.2894V17.8843L31.936 17.8877L32.2913 17.8912L32.2946 17.4411L34.3056 17.4549L34.3024 17.9293L35.039 17.9328L35.0358 18.2894L35.4171 18.2444L35.4139 18.6218L35.7496 18.6253L35.7463 18.9577L36.1277 18.9612L36.1244 19.387L36.1212 19.7887L38.9113 19.8095L38.9178 18.6461L38.5625 18.6426L38.5658 17.9328L38.2985 17.9293L38.2105 17.4792L37.8552 17.4757L37.8585 16.7901L37.2098 16.7832L37.2131 16.475H36.7894V16.0941L36.1668 16.0907L36.1472 15.6163L35.7431 15.6128L34.674 15.6059V15.2493L31.9295 15.2319L31.9491 15.6128L30.541 15.6751L30.4953 15.9591L29.8695 16.0249L29.8467 16.3815L29.4002 16.3781L29.3969 16.7347L29.1296 16.7382L29.1198 17.1017L28.7776 17.1087L28.7678 17.4757L28.4321 17.4722L28.4223 18.2063L28.0703 18.2271L28.0638 19.6952" fill="#3BB54A"/>
<path opacity="0.2" d="M28.3671 19.737L29.7752 19.7474L29.7784 19.3457L30.8019 19.3526L30.8051 18.996H31.1409L31.1441 18.6185L31.5222 18.622L31.5255 18.2896H31.8808L31.884 17.8879L32.2426 17.8914H32.5978L32.6011 17.4413L34.6089 17.4551L34.6057 17.9295L35.3423 17.933V18.2896L35.7204 18.2446V18.6255H36.0528V18.9579L36.4309 18.9613L36.4277 19.3872V19.7924L39.2178 19.8097L39.2243 18.6463H38.8658L38.8723 17.933H38.6017L38.517 17.4828L38.1585 17.4794L38.1617 16.7903L37.5163 16.7868V16.4787L37.0926 16.4752L37.0959 16.0978L36.4701 16.0909L36.4505 15.6165H36.0496L34.9772 15.6096L34.9805 15.2529L32.2328 15.2356L32.2556 15.613L30.8475 15.6753L30.8019 15.9593L30.1761 16.0251L30.15 16.3817L29.7034 16.3782V16.7349L29.4362 16.7418L29.4264 17.1054L29.0841 17.1089L29.0744 17.4794L28.7386 17.4759L28.7256 18.2065L28.3768 18.2273L28.3671 19.6989" fill="#3BB54A"/>
<path opacity="0.4" d="M27.7151 22.7251L32.249 22.7528L32.5587 22.7563V23.1233L33.2725 23.1268L33.2692 23.5181L34.3644 23.5285L34.3611 23.8816L35.0652 23.8886L35.0619 24.266L35.7757 24.2729V24.6399L36.4309 24.6434L36.4276 25.0312L37.1415 25.0347L37.1382 25.4156H37.4804V25.7653L37.8455 25.7687L37.8031 26.5409L37.839 26.8664L38.1812 26.8698L38.1616 30.2528L37.8259 30.2493L37.8031 31.3574L37.4478 31.3539L37.4446 31.6932L37.0893 31.6898L37.0926 32.1018H36.7568L36.7699 32.4723L36.0724 32.4688L36.0756 32.8463L34.9967 32.8393L34.9804 33.1856L33.9537 33.1821L33.9472 31.7002L34.2829 31.7036L34.3122 30.606L34.6675 30.5852L34.6708 30.2286L35.0065 30.2632L35.0033 29.4806H35.3292L35.3324 27.9813H35.0424V27.5901L35.0163 27.2265L34.6969 27.2577L34.674 26.8525L34.3416 26.8595L34.3351 26.4855L33.6212 26.4993L33.631 26.1254L32.94 26.1392L32.9433 25.7514L31.884 25.7583L31.8872 25.3879L31.1701 25.3671L31.1669 24.9793L30.163 24.9897L30.1564 24.6157L29.4491 24.6296L29.4361 24.2487L28.7679 24.2036L28.7549 23.8505L28.367 23.8401L28.3703 23.4904L28.028 23.473L28.0671 23.0956L27.7151 23.0991V22.7251Z" fill="#3BB54A"/>
<path opacity="0.2" d="M27.5424 22.718L32.073 22.7458L32.386 22.7492L32.3827 23.1163L33.0965 23.1197V23.511L34.1884 23.5179V23.8746L34.8892 23.8815V24.2589L35.603 24.2658L35.5998 24.6329L36.2549 24.6363L36.2517 25.0241L36.9687 25.0276L36.9655 25.4085H37.3077L37.3045 25.7582L37.6695 25.7617L37.6271 26.5338L37.663 26.8593L38.0052 26.8628L37.9857 30.2457L37.65 30.2423L37.6304 31.3503L37.2719 31.3468V31.6862L36.9133 31.6827L36.9166 32.0947L36.5841 32.0913L36.5972 32.4652L35.8964 32.4583L35.9029 32.8392L34.824 32.8323L34.8045 33.1785L33.7777 33.1716L33.7745 31.6931L34.1069 31.6965L34.1363 30.5989L34.4948 30.5781V30.2215L34.8305 30.2561L34.8273 29.4736H35.1565V27.9743H34.8664L34.8697 27.583L34.8403 27.2194L34.5209 27.2506L34.5013 26.8455L34.1656 26.8524L34.1591 26.4784L33.4453 26.4923L33.4551 26.1183L32.764 26.1322L32.7673 25.7444L31.708 25.7513L31.7113 25.3808L30.9974 25.36L30.9909 24.9722L29.987 24.9826L29.9837 24.6121L29.2764 24.6225L29.2634 24.2416L28.592 24.1966L28.5789 23.8434L28.1943 23.833V23.4833L27.8521 23.466L27.8912 23.0851L27.5392 23.092L27.5424 22.718Z" fill="#3BB54A"/>
<path opacity="0.4" d="M28.2497 22.3511L32.7803 22.3788L33.0932 22.3823L33.09 22.7493L33.8038 22.7528V23.1441L34.8957 23.151V23.5076L35.5965 23.5146V23.892L36.3103 23.8989L36.3071 24.2659L36.9622 24.2694L36.9589 24.6572L37.6728 24.6607V25.0416L38.015 25.045L38.0117 25.3913L38.3768 25.3948L38.3344 26.1669L38.3703 26.4924L38.7125 26.4959L38.693 29.8788L38.3572 29.8754L38.3377 30.9834L37.9791 30.9799L37.9759 31.3193L37.6206 31.3158L37.6239 31.7278H37.2914L37.3044 32.0983L36.6037 32.0914L36.6102 32.4723L35.5313 32.4654L35.5117 32.8116L34.485 32.8047L34.4785 31.3262L34.8142 31.3296L34.8436 30.232L35.2021 30.2112V29.8546L35.5378 29.8892L35.5346 29.1067H35.8605L35.8638 27.6074H35.5737L35.5769 27.2161L35.5476 26.8525L35.2282 26.8837L35.2086 26.4786L34.8729 26.4855L34.8664 26.1115L34.1526 26.1254L34.1623 25.7514L33.4713 25.7653L33.4746 25.3774L32.4153 25.3844L32.4185 25.0139L31.7047 24.9931L31.6982 24.6053L30.6943 24.6157L30.6878 24.2452L29.9837 24.2556L29.9707 23.8747L29.2992 23.8297L29.2862 23.4765L28.9016 23.4661V23.1164L28.5593 23.0991L28.5984 22.7182L28.2464 22.7251L28.2497 22.3511Z" fill="#3BB54A"/>
<path opacity="0.2" d="M28.592 22.3511L33.1259 22.3823L33.4355 22.3858V22.7528L34.1493 22.7563L34.1461 23.1475L35.2413 23.1545L35.238 23.5111L35.942 23.5146L35.9388 23.8955L36.6526 23.8989V24.2659L37.3077 24.2729L37.3045 24.6607L38.0183 24.6642L38.0151 25.045H38.3573V25.3948H38.7223L38.68 26.1704L38.7158 26.4959H39.0581L39.0353 29.8788H38.7028L38.68 30.9834H38.3247L38.3214 31.3227L37.9662 31.3193L37.9694 31.7313L37.6337 31.7278L37.6467 32.1018L36.9492 32.0949L36.9525 32.4758L35.8736 32.4688L35.8573 32.8151L34.8306 32.8082L34.824 31.3296L35.1598 31.3331L35.1891 30.2355L35.5444 30.2112L35.5476 29.858L35.8801 29.8892V29.1067L36.2061 29.1101V27.6108L35.916 27.6074L35.9192 27.2195L35.8931 26.856L35.5705 26.8837L35.5509 26.482L35.2184 26.4855L35.2119 26.115L34.4981 26.1254L34.5079 25.7549L33.8169 25.7653L33.8201 25.3774L32.7608 25.3878L32.7641 25.0173L32.047 24.9966L32.0437 24.6088L31.0398 24.6157L31.0333 24.2452L30.326 24.2556L30.313 23.8781L29.6448 23.8331L29.6317 23.4765L29.2439 23.4661L29.2471 23.1198L28.9049 23.1025L28.944 22.7216L28.5887 22.7286L28.592 22.3511Z" fill="#3BB54A"/>
<path d="M27.7347 19.7334L29.1395 19.7438L29.1427 19.3386L30.1694 19.3456V18.9924H30.5052L30.5084 18.615H30.8865L30.8898 18.2825L31.2483 18.286V17.8843L31.6068 17.8878H31.9621L31.9654 17.4377L33.9764 17.4515L33.9732 17.9259L34.7098 17.9294L34.7065 18.286L35.0879 18.241L35.0846 18.6219H35.4203L35.4171 18.9543L35.7984 18.9578L35.7952 19.3837L35.7919 19.7888L38.5819 19.8061L38.5885 18.6427H38.2332L38.2365 17.9294H37.9692L37.8812 17.4758H37.5259L37.5292 16.7867L36.8805 16.7832L36.8838 16.4751L36.4601 16.4716V16.0907L35.8375 16.0873L35.818 15.6129L35.4138 15.6094L34.3447 15.6025V15.2493L31.6003 15.2285L31.6199 15.6094L30.2118 15.6718L30.1662 15.9557L29.5404 16.0215L29.5176 16.3781L29.071 16.3747L29.0678 16.7313L28.8005 16.7382L28.7907 17.1018L28.4485 17.1053L28.4387 17.4723H28.103L28.0932 18.2029L27.7412 18.2237L27.7347 19.6953" fill="#3BB54A"/>
<path d="M27.7184 22.3477L32.249 22.3754L32.5619 22.3789L32.5587 22.7459L33.2757 22.7494L33.2725 23.1406L34.3677 23.1476L34.3644 23.5042L35.0684 23.5111L35.0652 23.8886L35.779 23.8955L35.7757 24.2625L36.4309 24.266V24.6538L37.1447 24.6573L37.1415 25.0381H37.4837V25.3879L37.8455 25.3913L37.8064 26.1635L37.839 26.489L38.1812 26.4924L38.1616 29.8754L37.8292 29.8719L37.8064 30.9799L37.4478 30.9765V31.3158L37.0893 31.3124L37.0958 31.7244L36.7601 31.7209L36.7731 32.0949L36.0724 32.088L36.0789 32.4689L35 32.4619L34.9837 32.8082L33.957 32.8013L33.9504 31.3262H34.2862L34.3122 30.2286L34.6708 30.2078L34.674 29.8511L35.0065 29.8858L35.0033 29.1032H35.3324V27.6039H35.0424L35.0456 27.2126L35.0195 26.8491L34.6969 26.8802L34.6773 26.4751L34.3416 26.482L34.3383 26.1115L33.6245 26.1219L33.6343 25.748L32.9433 25.7618V25.374L31.8872 25.3809V25.0104L31.1734 24.9897L31.1701 24.6019L30.163 24.6122L30.1597 24.2418L29.4524 24.2521L29.4394 23.8713L28.7712 23.8262L28.7581 23.4731L28.3703 23.4627L28.3735 23.1129L28.0313 23.0956L28.0704 22.7148L27.7151 22.7217L27.7184 22.3477Z" fill="#3BB54A"/>
<g opacity="0.61">
<path opacity="0.28" d="M31.4699 19.4425L31.4667 19.903L30.8865 19.8995L30.8832 20.4328L30.3617 20.4293L30.3584 20.9383L30.9093 20.9418L30.906 21.4473L31.4308 21.4508L31.4536 21.9321L31.9686 21.9355L31.9719 21.4542L32.5227 21.4577L32.526 20.9556L33.054 20.9591L33.0573 20.4397L32.5423 20.4362L32.5325 19.9411L31.9979 19.9272L32.0012 19.4113L31.4569 19.4078L31.4699 19.4425Z" fill="#F2F2F2"/>
<path opacity="0.36" d="M31.5156 19.6814L31.5124 20.0554L31.0463 20.0519V20.4778H30.6258L30.6225 20.8864L31.0658 20.8899L31.0625 21.295L31.4863 21.2984L31.5026 21.6863L31.9165 21.6897L31.9198 21.3019L32.3631 21.3054L32.3663 20.9002H32.7901L32.7933 20.4847L32.3794 20.4813L32.3729 20.0831L31.9426 20.0727L31.9459 19.6572L31.5058 19.6537L31.5156 19.6814Z" fill="#F2F2F2"/>
<path opacity="0.42" d="M31.5645 19.9274L31.5612 20.2079L31.2092 20.2044V20.5264H30.893L30.8898 20.8346L31.2255 20.8381L31.2222 21.1428H31.5384L31.5547 21.4371H31.8644L31.8676 21.1462L32.2033 21.1497V20.845H32.5228L32.526 20.5299H32.2131L32.2066 20.2286L31.8839 20.2217L31.8872 19.9066H31.5547L31.5645 19.9274Z" fill="#F2F2F2"/>
<path opacity="0.34" d="M32.6077 19.6523L30.8151 19.6404L30.8038 21.5448L32.5964 21.5567L32.6077 19.6523Z" fill="#F2F2F2"/>
</g>
<path opacity="0.55" d="M11.5417 15.5992L11.5254 18.5735L16.1375 18.6012L16.0527 30.1282L16.4048 30.1316L16.3982 31.2431L16.7503 31.2466L16.747 31.9876L17.1023 31.991L17.099 32.365H17.4478L17.4445 32.7528H17.8031L17.7998 33.1025L19.8859 33.1164L19.9706 18.6532L24.5273 18.6635L24.5436 15.6857L11.5417 15.5992Z" fill="#F3F3F3"/>
<path opacity="0.3" d="M11.3232 15.5992L11.3069 18.4869L15.8343 18.5147L15.7528 29.7127L16.0951 29.7161L16.0918 30.7965L16.4341 30.7999L16.4308 31.5201H16.7828L16.7796 31.8837L17.1185 31.8872L17.1153 32.2611L17.4673 32.2646L17.464 32.6039L19.5142 32.6178L19.5957 18.5631L24.0644 18.577L24.084 15.6823L11.3232 15.5992Z" fill="#F3F3F3"/>
<path opacity="0.1" d="M11.5417 15.5992L11.5254 18.5735L15.9745 18.6012L15.8898 30.1282H16.2288L16.2222 31.2431L16.5612 31.2466L16.558 31.9876L16.9035 31.991L16.9002 32.3615L17.2327 32.365V32.7494L17.5749 32.7528V33.1025L19.586 33.1164L19.674 18.6497L24.0645 18.6601L24.084 15.6823L11.5417 15.5992Z" fill="#F3F3F3"/>
<path opacity="0.3" d="M11.5384 16.0181L11.5221 18.9925L16.1342 19.0202L16.0495 30.5472L16.4015 30.5506L16.395 31.6656H16.747L16.7437 32.4066L17.099 32.41V32.784H17.4445L17.4413 33.1718H17.7998L17.7965 33.5215L19.8826 33.5354L19.9673 19.0721L24.5241 19.0825L24.5404 16.1047L11.5384 16.0181Z" fill="#F3F3F3"/>
<path opacity="0.1" d="M12.2393 16.1253L12.2197 19.0997L16.7112 19.1274L16.6265 30.6544H16.9687L16.9622 31.7693L17.3044 31.7728L17.3012 32.5138L17.6467 32.5172V32.8877L17.9824 32.8912L17.9791 33.2755L18.3279 33.279L18.3246 33.6287L20.3585 33.6426L20.4433 19.1759L24.8761 19.1863L24.8924 16.2084L12.2393 16.1253Z" fill="#F3F3F3"/>
<path opacity="0.55" d="M12.1219 15.6025L12.1056 18.5769L16.7177 18.6046L16.6329 30.1316L16.9849 30.135L16.9784 31.25H17.3305L17.3272 31.991L17.6825 31.9944V32.3684H18.028L18.0247 32.7562H18.38V33.1059L20.4661 33.1232L20.5508 18.6565L25.1042 18.6669L25.1238 15.6891L12.1219 15.6025Z" fill="#F3F3F3"/>
<path d="M11.76 15.6025L11.7437 18.5734L16.3559 18.6046L16.2711 30.1281L16.6231 30.1316L16.6166 31.2465L16.9686 31.25L16.9654 31.991H17.3207L17.3174 32.3649L17.6662 32.3684L17.6629 32.7527L18.0214 32.7562L18.0182 33.1059L20.1042 33.1198L20.189 18.6531L24.7457 18.6669L24.762 15.6856L11.76 15.6025Z" fill="#F3F3F3"/>
<g opacity="0.6">
<path opacity="0.6" d="M49.6871 24.9724L54.1135 15.9454L54.0809 23.6116L51.3234 29.8512L48.1975 29.8304L45.3488 23.5527L45.2738 15.8866L49.6871 24.9724Z" fill="#F3F3F3"/>
<path opacity="0.6" d="M41.783 15.9938L41.6884 29.3836H42.0274L42.0209 30.6786L42.3599 30.6821L42.3566 31.5443H42.6989V31.9806H43.0313L43.0281 32.4307H43.3736L43.3703 32.8393L45.3846 32.8531L45.4824 16.0457L41.783 15.9938Z" fill="#F3F3F3"/>
<path opacity="0.6" d="M53.9831 16.0735L53.8885 29.4634L54.2275 29.4668L54.2178 30.7618H54.5567L54.5535 31.624L54.899 31.6275L54.8957 32.0603L55.2282 32.0638L55.2249 32.5105L55.5704 32.5139L55.5672 32.919L57.5815 32.9329L57.6793 16.1255L53.9831 16.0735Z" fill="#F3F3F3"/>
</g>
<g opacity="0.3">
<path opacity="0.3" d="M49.7132 25.4052L54.1427 16.3783L54.1069 24.041L51.3527 30.284L48.2269 30.2632L45.3781 23.9856L45.3031 16.3194L49.7132 25.4052Z" fill="#F3F3F3"/>
<path opacity="0.3" d="M41.8122 16.4232L41.7177 29.8131L42.0567 29.8165L42.0502 31.1116L42.3892 31.115L42.3826 31.9737L42.7281 31.9772L42.7249 32.41L43.0606 32.4135L43.0574 32.8602L43.4029 32.8636L43.3996 33.2687L45.4139 33.2826L45.5117 16.4787L41.8122 16.4232Z" fill="#F3F3F3"/>
<path opacity="0.3" d="M54.0123 16.5064L53.9178 29.8962H54.2535L54.247 31.1947H54.586L54.5827 32.0569L54.925 32.0604V32.4932H55.2574L55.2541 32.9433H55.5996L55.5964 33.3519L57.6106 33.3658L57.7084 16.5583L54.0123 16.5064Z" fill="#F3F3F3"/>
</g>
<g opacity="0.1">
<path opacity="0.1" d="M49.6871 25.8276L54.1135 16.8006L54.0809 24.4634L51.3234 30.7064L48.2008 30.6856L45.3488 24.408L45.2738 16.7418L49.6871 25.8276Z" fill="#F3F3F3"/>
<path opacity="0.1" d="M41.7862 16.849L41.6884 30.2388H42.0307L42.0209 31.5338L42.3599 31.5373L42.3566 32.396L42.6989 32.3995V32.8323L43.0313 32.8358L43.0281 33.2824L43.3736 33.2859L43.3703 33.691L45.3846 33.7049L45.4824 16.8975L41.7862 16.849Z" fill="#F3F3F3"/>
<path opacity="0.1" d="M53.9831 16.9288L53.8885 30.3186L54.2275 30.3221L54.221 31.6136L54.56 31.6171L54.5535 32.4793H54.899L54.8957 32.9156H55.2282V33.3657H55.5704V33.7743L57.5815 33.7881L57.6793 16.9807L53.9831 16.9288Z" fill="#F3F3F3"/>
</g>
<g opacity="0.6">
<path opacity="0.6" d="M50.2932 24.9757L54.7195 15.9488L54.6869 23.6149L51.9294 29.8545L48.8069 29.8338L45.9549 23.5561L45.8799 15.8934L50.2932 24.9757Z" fill="#F3F3F3"/>
<path opacity="0.6" d="M42.3923 15.9972L42.2978 29.387L42.6368 29.3905L42.627 30.6855H42.966L42.9627 31.5476H43.3082L43.305 31.9839L43.6375 31.9874L43.6342 32.4341H43.9797L43.9765 32.8427L45.9909 32.8565L46.0887 16.0491L42.3923 15.9972Z" fill="#F3F3F3"/>
<path opacity="0.6" d="M54.5892 16.0769L54.4946 29.4668L54.8336 29.4702L54.8271 30.7652L55.1661 30.7687L55.1596 31.6274L55.5051 31.6309L55.5018 32.0637L55.8375 32.0672L55.8343 32.5138L56.1765 32.5173V32.9224L58.1876 32.9363L58.2886 16.1289L54.5892 16.0769Z" fill="#F3F3F3"/>
</g>
<path d="M49.9608 24.9099L54.3872 15.8829L54.3546 23.5491L51.597 29.7887L48.4712 29.7679L45.6224 23.4902L45.5474 15.824L49.9608 24.9099Z" fill="#F3F3F3"/>
<path d="M42.06 15.9315L41.9622 29.3214H42.3012L42.2946 30.6164L42.6336 30.6198L42.6304 31.482H42.9726L42.9693 31.9183H43.3051L43.3018 32.3685H43.6473L43.6441 32.777L45.6584 32.7909L45.7562 15.9835L42.06 15.9315Z" fill="#F3F3F3"/>
<path d="M54.2568 16.011L54.1623 29.4009L54.5013 29.4044L54.4915 30.6994H54.8337L54.8272 31.5615L55.1727 31.565L55.1695 31.9978L55.5019 32.0013L55.4987 32.448L55.8442 32.4514L55.8409 32.8565L57.8552 32.8704L57.953 16.063L54.2568 16.011Z" fill="#F3F3F3"/>
<path d="M60.8574 16.0215H59.3807V17.5901H60.8574V16.0215Z" fill="#55A4DB"/>
<path d="M63.8917 15.6959H61.7828V17.9362H63.8917V15.6959Z" fill="#726658"/>
<path d="M68.6961 13.3034H65.3161V16.8941H68.6961V13.3034Z" fill="#046937"/>
<path d="M58.7774 8.03323H55.1724V11.8629H58.7774V8.03323Z" fill="#FBB03C"/>
<path d="M64.6412 9.47037H59.4556V14.9793H64.6412V9.47037Z" fill="#00A99D"/>
<path d="M66.4405 0H62.8356V3.82963H66.4405V0Z" fill="#2E3690"/>
<path d="M63.9635 4.68143H60.1302V8.75344H63.9635V4.68143Z" fill="#603913"/>
<path d="M59.4556 1.91495H54.7229V6.94262H59.4556V1.91495Z" fill="#EC2227"/>
<path d="M67.3434 4.49106H64.6839V7.31654H67.3434V4.49106Z" fill="#B9539F"/>
<path d="M69.2731 8.27228H65.4399V12.3443H69.2731V8.27228Z" fill="#4E4E4E"/>
<path d="M62.3858 1.5687H59.9054V4.20372H62.3858V1.5687Z" fill="#6ABD45"/>
<path d="M69.247 1.37488H67.1382V3.61517H69.247V1.37488Z" fill="#F15B27"/>
<path d="M70 4.82346H67.8911V7.06375H70V4.82346Z" fill="#F9ED32"/>
<path d="M58.4681 12.7252H56.3592V14.9655H58.4681V12.7252Z" fill="#BE1E2D"/>
</svg>
