<svg xmlns="http://www.w3.org/2000/svg" viewBox="0 0 110.21 180.09"><defs><style>.cls-1{fill:#35b729;}.cls-2{fill:#2e3247;}.cls-3{fill:#f4d34a;}.cls-4{fill:#f4a82d;}.cls-5{fill:#fff;}.cls-6{fill:#fafeff;}.cls-7{fill:#c9c9c9;}.cls-8{fill:#979797;}.cls-9{fill:#052c44;}.cls-10{fill:#073b5b;}</style></defs><g id="Layer_2" data-name="Layer 2"><g id="Layer_1-2" data-name="Layer 1"><path class="cls-1" d="M98.59,42.74,110,54.09l0-33.75a2.9,2.9,0,0,0-2.9-2.89L2.88,17.66A2.89,2.89,0,0,0,0,20.56L.26,163.05a2.89,2.89,0,0,0,2.89,2.89l22,0L11,151.84Z"/><path class="cls-1" d="M110.21,162.83,110,49.39,98.59,38,11,151.84,25.11,165.9l82.21-.17A2.89,2.89,0,0,0,110.21,162.83Z"/><polygon class="cls-2" points="84.58 35.6 25.43 35.72 25.4 17.57 84.54 17.45 84.58 35.6"/><path class="cls-3" d="M14.33,35.72a3.55,3.55,0,0,0-3.55,3.55v3.47h44v-7Z"/><path class="cls-4" d="M98.59,39.27a3.4,3.4,0,0,0-3.37-3.55H54.82v7H98.59Z"/><circle class="cls-5" cx="83.45" cy="39.23" r="1.68"/><path class="cls-6" d="M14.5,142.21v-6.76H54.85v-33.8H14.5V94.89H54.85V88.13H14.5V81.37H54.85V74.61H14.5V51H54.85V42.74H10.78L11,151.84l43.85-.09v-9.54Zm0-20.28V108.41H41v20.28H14.5Z"/><path class="cls-7" d="M98.69,90.06l0-23.66,0-23.66H54.85V51H95.23V74.61H54.85v6.76H95.23v6.76H54.85v6.76H95.23v6.76H54.85v33.8H95.23v6.76H54.85v9.54l44-.08Zm-3.46,25.11v13.52H68.55V108.41H95.23Z"/><rect class="cls-7" x="14.5" y="51" width="40.35" height="23.61"/><rect class="cls-8" x="54.85" y="51" width="40.38" height="23.61"/><rect class="cls-7" x="14.5" y="81.37" width="40.35" height="6.76"/><rect class="cls-8" x="54.85" y="81.37" width="40.38" height="6.76"/><rect class="cls-8" x="54.85" y="94.89" width="40.38" height="6.76"/><rect class="cls-7" x="14.5" y="94.89" width="40.35" height="6.76"/><polygon class="cls-7" points="40.97 121.93 40.97 115.17 40.97 108.41 14.5 108.41 14.5 115.17 14.5 121.93 14.5 128.69 40.97 128.69 40.97 121.93"/><polygon class="cls-8" points="68.55 115.17 68.55 121.93 68.55 128.69 95.23 128.69 95.23 121.93 95.23 115.17 95.23 108.41 68.55 108.41 68.55 115.17"/><rect class="cls-7" x="14.5" y="135.45" width="40.35" height="6.76"/><rect class="cls-8" x="54.85" y="135.45" width="40.38" height="6.76"/><polygon class="cls-3" points="54.3 166.66 54.34 179.31 49.78 171.12 49.74 151.75 55.06 151.75 55.08 166.64 54.3 166.66"/><polygon class="cls-4" points="55.92 179.29 55.88 166.65 55.08 166.64 55.06 151.75 60.37 151.73 60.42 171.09 55.92 179.29"/><path d="M55.89,168.76l0,10.53-.81.8-.76-.77,0-10.55a2.41,2.41,0,1,1,1.56,0Z"/><polygon class="cls-9" points="54.87 57.5 54.77 7.64 65.35 7.62 65.36 11.87 65.39 11.87 65.39 15.54 65.48 57.47 54.87 57.5"/><polygon class="cls-10" points="44.25 57.51 44.16 15.57 44.16 11.9 44.16 7.68 54.77 7.64 54.87 57.5 44.25 57.51"/><rect class="cls-10" x="46.25" y="66.71" width="8.73" height="85.05" transform="translate(-0.22 0.1) rotate(-0.12)"/><polygon class="cls-9" points="63.53 151.73 55.06 151.75 54.9 66.69 63.36 66.69 63.53 151.73"/><path class="cls-5" d="M57.63,7.64l.08,42.2a2.86,2.86,0,0,1-5.71,0L51.91,7.65l-7.75,0A7.61,7.61,0,0,1,51.77,0H57.7a7.63,7.63,0,0,1,7.65,7.62Z"/><rect class="cls-7" x="54.99" y="113.82" width="8.48" height="3.68" transform="translate(-0.29 0.15) rotate(-0.15)"/><rect class="cls-5" x="46.25" y="113.83" width="8.74" height="3.68" transform="translate(-0.27 0.12) rotate(-0.13)"/><polygon class="cls-7" points="65.5 66.68 54.9 66.69 54.87 57.5 65.48 57.47 65.5 66.68"/><rect class="cls-5" x="44.25" y="57.51" width="10.63" height="9.2" transform="translate(-0.13 0.11) rotate(-0.12)"/></g></g></svg>