<svg xmlns="http://www.w3.org/2000/svg" xmlns:xlink="http://www.w3.org/1999/xlink" viewBox="0 0 459.13 463.78"><defs><style>.cls-1{isolation:isolate;}.cls-2{opacity:0.2;mix-blend-mode:multiply;}.cls-3{fill:#48443e;}.cls-4{fill:#a7aba7;}.cls-5{fill:#fff;}.cls-6{fill:#111326;}.cls-7,.cls-8{fill:none;}.cls-7{stroke:#1e3822;stroke-miterlimit:10;stroke-width:2px;}.cls-9{fill:#b8b8b8;}.cls-10{fill:url(#linear-gradient);}.cls-11{fill:url(#linear-gradient-2);}.cls-12{fill:#aaa;}</style><linearGradient id="linear-gradient" x1="107.72" y1="324.18" x2="321.72" y2="110.68" gradientUnits="userSpaceOnUse"><stop offset="0" stop-color="#e9f0ed"/><stop offset="1" stop-color="#f6faf6"/></linearGradient><linearGradient id="linear-gradient-2" x1="142.07" y1="358.62" x2="356.07" y2="145.12" xlink:href="#linear-gradient"/></defs><g class="cls-1"><g id="Layer_2" data-name="Layer 2"><g id="objects"><g class="cls-2"><circle class="cls-3" cx="229.61" cy="230.78" r="229.52" transform="translate(-95.93 229.95) rotate(-45)"/></g><circle class="cls-4" cx="229.61" cy="234.26" r="229.51" transform="translate(-98.4 230.97) rotate(-45)"/><circle class="cls-5" cx="229.62" cy="229.52" r="229.52" transform="translate(-95.04 229.59) rotate(-45)"/><circle class="cls-6" cx="229.52" cy="232.18" r="229.52" transform="translate(-96.95 230.29) rotate(-45)"/><circle class="cls-7" cx="229.62" cy="235.62" r="206.76" transform="translate(-99.35 231.37) rotate(-45)"/><g class="cls-2"><path class="cls-3" d="M229.5,114c-158.91,0-168.08,75-165,106.27.74,7.51,8.49,12.35,15.91,11l40.11-7.15,7.65-1.36c4.23-.75,8.68-4.56,10.27-8.37q1.44-3.47,3.14-6.79a99.28,99.28,0,0,1,26.32-32.31A98.56,98.56,0,0,1,319.7,212.34c3.06,6.89,5.76,13.2,12.19,14.24l7.55,1.42,39.28,7.41c7.41,1.4,15.09-3.39,15.83-10.9C397.73,192.43,389.18,114,229.5,114Z"/><path class="cls-3" d="M342.42,243.46l-11.34-2.24-18.8-4a83.85,83.85,0,0,0-69.9-68.15l-.23,0a84.27,84.27,0,0,0-95.3,67.39l-30.2,6.27-.11,1.55c-.18,2.73-.27,5.41-.27,8a113.24,113.24,0,1,0,226.47,0c0-2.44-.08-4.86-.22-7.2ZM229.5,186.12a66.17,66.17,0,0,1,66.12,66.11c0,1.24,0,2.49-.09,3.64-.14,1.55-.29,2.86-.44,3.92-3.17,17.54-16,26.88-24.1,26.88a5.65,5.65,0,0,1-4.05-1.36,4.7,4.7,0,0,1-1.14-3.54V225.29H246.59v5.28a43.21,43.21,0,0,0-7.64-3.12,44.52,44.52,0,0,0-11.45-1.6H227a41.87,41.87,0,0,0-29.3,11.94,42,42,0,0,0-8.85,13,48.19,48.19,0,0,0-2.64,9.29,45.56,45.56,0,0,0-.45,6.45,42.59,42.59,0,0,0,3,15.76,40.32,40.32,0,0,0,8.69,12.82,39.63,39.63,0,0,0,13,8.71A43.59,43.59,0,0,0,227,306.9h.44a42,42,0,0,0,24.18-7.69c2.58,4.56,9.41,7.71,17.48,7.71,17.13,0,37.54-13.52,44.18-51.23l11.28,2.81c-3.23,50.82-43.79,88.94-95,88.94-51.64,0-92.22-38.46-95.05-89.74l10.37-2.64,18.56-4,.06-1.59A65.92,65.92,0,0,1,229.5,186.12Zm17.14,90.44c-.76,3.3-4,5.78-7.52,8a21.75,21.75,0,0,1-11.89,3.15H227a23,23,0,0,1-9.13-1.66,22.16,22.16,0,0,1-6.91-4.6,19,19,0,0,1-4.45-6.72,21.81,21.81,0,0,1-1.67-8.2,16.31,16.31,0,0,1,.86-5.47l.1-.4a9.36,9.36,0,0,1,.69-2.43,23.47,23.47,0,0,1,4.56-6.86,23.76,23.76,0,0,1,7.11-4.65,22.39,22.39,0,0,1,8.9-1.8h.32a20.47,20.47,0,0,1,6,1l.15,0a19.74,19.74,0,0,1,5.49,2.35,26.23,26.23,0,0,1,4.55,3.9l.29.32c1.3,1.41,2.53,2.74,2.87,4.11C247.78,261.17,247.78,271.59,246.64,276.56Z"/></g><line class="cls-8" x1="346.22" y1="288.68" x2="344.29" y2="288.3"/><path class="cls-5" d="M229.5,112.89c-158.9,0-168.08,75-165,106.27.74,7.51,8.48,12.34,15.91,11L120.51,223l7.65-1.36a15.27,15.27,0,0,0,10.27-8.37c1-2.31,2-4.58,3.14-6.79a98.62,98.62,0,0,1,178.13,4.74c3.06,6.9,5.76,13.21,12.19,14.25l7.55,1.42,39.28,7.41c7.41,1.39,15.09-3.4,15.83-10.9C397.73,191.34,389.18,112.89,229.5,112.89Z"/><path class="cls-5" d="M342.42,242.37l-11.34-2.24-18.8-4A83.86,83.86,0,0,0,242.38,168l-.23,0a84.19,84.19,0,0,0-95.3,67.39l-30.2,6.26-.11,1.56c-.18,2.72-.27,5.41-.27,8a113.24,113.24,0,1,0,226.47,0c0-2.43-.08-4.85-.22-7.19ZM229.5,185a66.19,66.19,0,0,1,66.12,66.11c0,1.24,0,2.49-.09,3.64-.14,1.55-.29,2.86-.44,3.93-3.17,17.53-16,26.88-24.1,26.88a5.7,5.7,0,0,1-4.05-1.36,4.74,4.74,0,0,1-1.14-3.55V224.2H246.59v5.28a39.78,39.78,0,0,0-19.09-4.71,5.06,5.06,0,0,0-.55,0,41.87,41.87,0,0,0-29.3,11.94,42,42,0,0,0-8.85,13,47.89,47.89,0,0,0-2.64,9.28,45.77,45.77,0,0,0-.45,6.45,42.56,42.56,0,0,0,3,15.76A40.47,40.47,0,0,0,197.37,294a39.63,39.63,0,0,0,13,8.71A43.59,43.59,0,0,0,227,305.82h.44a42,42,0,0,0,24.18-7.69c2.58,4.55,9.41,7.7,17.48,7.7,17.13,0,37.54-13.51,44.18-51.23l11.28,2.81c-3.23,50.83-43.79,88.95-95,88.95-51.64,0-92.22-38.47-95.05-89.74L144.82,254l18.56-4,.06-1.59A65.92,65.92,0,0,1,229.5,185Zm17.14,90.44c-.76,3.31-4,5.78-7.52,8a21.92,21.92,0,0,1-11.89,3.15H227a23,23,0,0,1-9.13-1.66,22,22,0,0,1-6.91-4.59,19.09,19.09,0,0,1-4.45-6.73,21.73,21.73,0,0,1-1.67-8.2,16.31,16.31,0,0,1,.86-5.47l.1-.4a9.29,9.29,0,0,1,.69-2.42,23.38,23.38,0,0,1,4.56-6.87,23.85,23.85,0,0,1,7.11-4.64,22.22,22.22,0,0,1,8.9-1.8h.32a19.83,19.83,0,0,1,6,1l.15,0a19.78,19.78,0,0,1,5.49,2.36,26.64,26.64,0,0,1,4.55,3.89l.29.32c1.3,1.41,2.53,2.74,2.87,4.11C247.78,260.09,247.78,270.5,246.64,275.47Z"/><path class="cls-9" d="M229.38,115.47c-158.9,0-168.08,75-165,106.27.74,7.51,8.48,12.35,15.91,11l40.11-7.15,7.65-1.36c4.23-.75,8.68-4.56,10.27-8.37q1.44-3.47,3.14-6.79a99.28,99.28,0,0,1,26.32-32.31,98.56,98.56,0,0,1,151.81,37.05c3.06,6.9,5.76,13.21,12.2,14.25l7.53,1.42,39.29,7.41c7.41,1.4,15.09-3.39,15.83-10.9C397.61,193.93,389.06,115.47,229.38,115.47Z"/><path class="cls-9" d="M342.3,245,331,242.72l-18.8-4a83.85,83.85,0,0,0-69.9-68.15l-.23,0a84.27,84.27,0,0,0-95.3,67.39l-30.2,6.27-.11,1.55c-.18,2.73-.27,5.41-.27,8a113.24,113.24,0,1,0,226.47,0c0-2.44-.07-4.86-.22-7.2ZM229.38,187.62a66.17,66.17,0,0,1,66.12,66.11c0,1.24,0,2.49-.09,3.64-.14,1.55-.29,2.86-.44,3.92-3.17,17.54-16,26.88-24.1,26.88a5.65,5.65,0,0,1-4.05-1.36,4.71,4.71,0,0,1-1.14-3.55V226.79H246.47v5.27a44,44,0,0,0-7.64-3.11,44.58,44.58,0,0,0-11.45-1.6h-.55a41.87,41.87,0,0,0-29.3,11.94,41.88,41.88,0,0,0-8.85,13,47.89,47.89,0,0,0-2.64,9.28,45.56,45.56,0,0,0-.45,6.45,42.59,42.59,0,0,0,3,15.76,40.48,40.48,0,0,0,8.69,12.82,39.48,39.48,0,0,0,13,8.71,43.59,43.59,0,0,0,16.58,3.09h.44a39.52,39.52,0,0,0,14.23-2.5,40.22,40.22,0,0,0,9.95-5.18c2.58,4.55,9.41,7.7,17.48,7.7,17.13,0,37.54-13.52,44.19-51.24L324.39,260c-3.23,50.82-43.79,88.94-95,88.94-51.64,0-92.22-38.46-95-89.74l10.37-2.64,18.56-4,.06-1.59A65.92,65.92,0,0,1,229.38,187.62Zm17.14,90.44c-.76,3.3-4.05,5.78-7.53,8a21.69,21.69,0,0,1-11.88,3.15h-.28a23,23,0,0,1-9.13-1.66,22.16,22.16,0,0,1-6.91-4.6,18.91,18.91,0,0,1-4.45-6.73,21.68,21.68,0,0,1-1.67-8.19,16.31,16.31,0,0,1,.86-5.47l.1-.4a9.19,9.19,0,0,1,.69-2.42,23.38,23.38,0,0,1,4.56-6.87,24,24,0,0,1,7.11-4.65,22.39,22.39,0,0,1,8.9-1.8h.32a20.47,20.47,0,0,1,6,1l.15,0a20.08,20.08,0,0,1,5.49,2.36,26.23,26.23,0,0,1,4.55,3.9l.29.32c1.3,1.41,2.52,2.74,2.87,4.11C247.66,262.67,247.65,273.09,246.52,278.06Z"/><path class="cls-10" d="M229.5,114c-158.9,0-168.08,75-165,106.27.74,7.51,8.48,12.35,15.91,11l40.11-7.15,7.65-1.36c4.23-.75,8.68-4.56,10.27-8.37q1.44-3.47,3.14-6.78a99.21,99.21,0,0,1,26.32-32.32A98.56,98.56,0,0,1,319.7,212.34c3.06,6.89,5.76,13.21,12.19,14.24l7.55,1.42,39.28,7.41c7.41,1.4,15.09-3.39,15.83-10.9C397.73,192.43,389.18,114,229.5,114Z"/><path class="cls-11" d="M342.42,243.46l-11.34-2.24-18.8-4a83.85,83.85,0,0,0-69.9-68.15l-.23,0a84.2,84.2,0,0,0-95.3,67.38l-30.2,6.27-.11,1.55c-.18,2.73-.27,5.41-.27,8a113.24,113.24,0,1,0,226.47,0c0-2.44-.08-4.86-.22-7.2ZM229.5,186.12a66.17,66.17,0,0,1,66.12,66.11c0,1.24,0,2.49-.09,3.64-.14,1.55-.29,2.86-.44,3.92-3.17,17.54-16,26.88-24.1,26.88a5.65,5.65,0,0,1-4.05-1.36,4.7,4.7,0,0,1-1.14-3.54V225.29H246.59v5.28a43.21,43.21,0,0,0-7.64-3.12,44.52,44.52,0,0,0-11.45-1.6H227a41.87,41.87,0,0,0-29.3,11.94,41.88,41.88,0,0,0-8.85,13,47.89,47.89,0,0,0-2.64,9.28,45.56,45.56,0,0,0-.45,6.45,42.59,42.59,0,0,0,3,15.76,40.32,40.32,0,0,0,8.69,12.82,39.48,39.48,0,0,0,13,8.71A43.59,43.59,0,0,0,227,306.9h.44a39.52,39.52,0,0,0,14.23-2.5,40.22,40.22,0,0,0,9.95-5.18c2.58,4.55,9.41,7.7,17.48,7.7,17.13,0,37.54-13.52,44.18-51.23l11.28,2.81c-3.23,50.82-43.79,88.94-95,88.94-51.64,0-92.22-38.46-95.05-89.74l10.37-2.64,18.56-4,.06-1.59A65.92,65.92,0,0,1,229.5,186.12Zm17.14,90.44c-.76,3.3-4,5.78-7.52,8a21.75,21.75,0,0,1-11.89,3.15H227a23,23,0,0,1-9.13-1.66,22.16,22.16,0,0,1-6.91-4.6,19,19,0,0,1-4.45-6.72,21.77,21.77,0,0,1-1.67-8.2,16.31,16.31,0,0,1,.86-5.47l.1-.4a9.19,9.19,0,0,1,.69-2.42,23.38,23.38,0,0,1,4.56-6.87,24.08,24.08,0,0,1,7.11-4.65,22.39,22.39,0,0,1,8.9-1.8h.32a20.47,20.47,0,0,1,6,1l.15,0a19.48,19.48,0,0,1,5.49,2.36,25.78,25.78,0,0,1,4.55,3.89l.29.32c1.3,1.41,2.53,2.74,2.87,4.11C247.78,261.17,247.78,271.59,246.64,276.56Z"/><polygon class="cls-5" points="318.15 208.95 394.86 221.06 395.02 219.65 317.32 207.29 318.15 208.95"/><polygon class="cls-12" points="317.86 208.47 394.86 220.58 395.02 219.16 317.03 206.8 317.86 208.47"/><polygon class="cls-5" points="142.88 204.75 64.36 216.86 64.19 215.45 143.73 203.09 142.88 204.75"/><polygon class="cls-12" points="143.18 204.27 64.37 216.38 64.19 214.96 144.03 202.6 143.18 204.27"/></g></g></g></svg>